<svg xmlns="http://www.w3.org/2000/svg" viewBox="0 0 24 24" fill="#2dd4bf">
  <rect width="24" height="24" fill="#0f172a" rx="4"></rect>
  <path d="M14.284 3.018a.75.75 0 0 0-1.233-.823l-3.324 4.985a.75.75 0 0 0 .617.823h2.39a.75.75 0 0 1 .737.62l.334 1.335a.75.75 0 0 0 .737.62h2.266a.75.75 0 0 0 .68-.423l1.24-2.48a.75.75 0 0 0-.679-1.077h-2.39a.75.75 0 0 1-.737-.62l-.442-1.767ZM5.188 11.25a.75.75 0 0 1 .53 1.28l-1.28 1.28a.75.75 0 0 1-1.06 0l-.64-.64a.75.75 0 0 1 0-1.06l1.28-1.28a.75.75 0 0 1 .53-.28ZM10 12a.75.75 0 0 1 .75.75v.008a.75.75 0 0 1-.75.75h-.008a.75.75 0 0 1-.75-.75v-.008a.75.75 0 0 1 .75-.75h.008ZM12.5 12a.75.75 0 0 1 .75.75v.008a.75.75 0 0 1-.75.75h-.008a.75.75 0 0 1-.75-.75v-.008a.75.75 0 0 1 .75-.75h.008Z" />
  <path fill-rule="evenodd" d="M3 13.5a.75.75 0 0 1 .75.75v3.19l.3-.3a.75.75 0 0 1 1.06 0l1.47 1.47a.75.75 0 0 1 0 1.06l-.3.3H18.75a.75.75 0 0 1 .75.75v.75a.75.75 0 0 1-.75.75H3.75a.75.75 0 0 1-.75-.75V14.25A.75.75 0 0 1 3 13.5Zm12.92 5.03a.75.75 0 0 1 1.06 0l.3.3v-3.19a.75.75 0 0 1 .75-.75.75.75 0 0 1 .75.75v5.25a.75.75 0 0 1-.75.75h-5.25a.75.75 0 0 1-.75-.75.75.75 0 0 1 .75-.75h3.19l-.3-.3a.75.75 0 0 1 0-1.06l1.47-1.47Z" clip-rule="evenodd" />
</svg>
